<svg width="26" height="24" viewBox="0 0 26 24" fill="none" xmlns="http://www.w3.org/2000/svg">
<g opacity="0.8">
<path opacity="0.4" fill-rule="evenodd" clip-rule="evenodd" d="M6.8634 20.5885C6.8634 19.7485 7.58171 19.0685 8.46904 19.0685C9.3458 19.0685 10.0641 19.7485 10.0641 20.5885C10.0641 21.4185 9.3458 22.0985 8.46904 22.0985C7.58171 22.0985 6.8634 21.4185 6.8634 20.5885ZM18.7472 20.5885C18.7472 19.7485 19.4655 19.0685 20.3528 19.0685C21.2296 19.0685 21.9479 19.7485 21.9479 20.5885C21.9479 21.4185 21.2296 22.0985 20.3528 22.0985C19.4655 22.0985 18.7472 21.4185 18.7472 20.5885Z" fill="url(#paint0_linear_10_39)"/>
<path fill-rule="evenodd" clip-rule="evenodd" d="M21.9481 6.34899C22.5925 6.34899 23.015 6.55899 23.4376 7.01899C23.8601 7.47899 23.934 8.13899 23.839 8.73799L22.8354 15.298C22.6453 16.559 21.5045 17.488 20.1629 17.488H8.63826C7.23333 17.488 6.07136 16.468 5.95516 15.149L4.98333 4.24799L3.38826 3.98799C2.96572 3.91799 2.66995 3.52799 2.74389 3.12799C2.81783 2.71799 3.22981 2.44799 3.66291 2.50799L6.18227 2.86799C6.54143 2.92899 6.80551 3.20799 6.8372 3.54799L7.03791 5.78799C7.0696 6.10899 7.34424 6.34899 7.68227 6.34899H21.9481ZM15.5467 11.548H18.4728C18.9164 11.548 19.265 11.208 19.265 10.798C19.265 10.378 18.9164 10.048 18.4728 10.048H15.5467C15.103 10.048 14.7545 10.378 14.7545 10.798C14.7545 11.208 15.103 11.548 15.5467 11.548Z" fill="url(#paint1_linear_10_39)"/>
</g>
<defs>
<linearGradient id="paint0_linear_10_39" x1="6.8634" y1="18.8824" x2="18.0435" y2="27.5059" gradientUnits="userSpaceOnUse">
<stop stop-color="#FF0000"/>
<stop offset="1" stop-color="#FF0000"/>
</linearGradient>
<linearGradient id="paint1_linear_10_39" x1="2.73254" y1="1.57933" x2="26.5868" y2="6.79289" gradientUnits="userSpaceOnUse">
<stop stop-color="#FF0000"/>
<stop offset="1" stop-color="#FF0000"/>
</linearGradient>
</defs>
</svg>
